<?xml version="1.0" standalone="no"?>
<!DOCTYPE svg PUBLIC "-//W3C//DTD SVG 20010904//EN"
 "http://www.w3.org/TR/2001/REC-SVG-20010904/DTD/svg10.dtd">
<svg version="1.0" xmlns="http://www.w3.org/2000/svg"
 width="300.000000pt" height="300.000000pt" viewBox="0 0 300.000000 300.000000"
 preserveAspectRatio="xMidYMid meet">

<g transform="translate(0.000000,300.000000) scale(0.100000,-0.100000)"
fill="#000000" stroke="none">
<path d="M64 2383 c-65 -13 -73 -86 -29 -237 69 -238 201 -503 401 -808 215
-327 400 -501 659 -624 143 -68 263 -96 415 -98 144 -1 208 16 229 60 7 16 11
93 11 214 0 104 4 200 10 215 5 14 22 30 37 36 92 35 259 -80 500 -344 172
-189 155 -181 393 -185 232 -4 273 3 296 52 13 26 14 40 5 72 -26 97 -142 251
-364 483 -154 160 -183 203 -167 245 5 14 63 105 128 203 251 376 363 591 346
666 -10 49 -48 57 -264 57 -201 0 -236 -6 -273 -48 -10 -11 -52 -88 -93 -172
-95 -195 -164 -312 -257 -436 -113 -152 -214 -233 -255 -208 -40 25 -42 46
-42 426 0 258 -3 375 -12 393 -19 42 -59 47 -355 43 -263 -3 -273 -4 -294 -25
-33 -32 -26 -66 29 -147 73 -110 77 -132 77 -481 0 -315 -3 -337 -45 -350
-103 -33 -363 348 -524 770 -58 152 -81 197 -109 215 -17 12 -65 15 -227 16
-113 1 -215 0 -226 -3z"/>
</g>
</svg>
